<svg width="1099" height="257" viewBox="0 0 1099 257" fill="none" xmlns="http://www.w3.org/2000/svg">
<ellipse cx="123.494" cy="128.5" rx="123.494" ry="128.5" fill="#FF6B00"/>
<path fill-rule="evenodd" clip-rule="evenodd" d="M166.6 60.7489C168.102 62.0355 169.154 63.7691 169.603 65.6978C170.053 67.6265 169.876 69.6496 169.099 71.473L150.839 114.314L185.027 128.885C186.591 129.551 187.941 130.634 188.932 132.016C189.923 133.398 190.516 135.027 190.646 136.725C190.776 138.422 190.439 140.124 189.671 141.645C188.903 143.166 187.734 144.447 186.291 145.35L89.9445 205.534C88.2659 206.586 86.297 207.074 84.3243 206.928C82.3517 206.782 80.4781 206.009 78.9763 204.722C77.4745 203.434 76.4227 201.7 75.9741 199.771C75.5254 197.841 75.7032 195.818 76.4817 193.995L94.7409 151.153L60.5533 136.582C58.9897 135.917 57.639 134.834 56.6482 133.452C55.6575 132.07 55.0647 130.441 54.9344 128.743C54.804 127.045 55.1411 125.343 55.909 123.822C56.6768 122.302 57.846 121.02 59.2892 120.117L155.636 59.9336C157.315 58.8854 159.283 58.4001 161.254 58.5482C163.225 58.6964 165.1 59.4617 166.6 60.7489Z" fill="white"/>
<path d="M355.482 177.094C345.37 177.094 336.689 174.947 329.438 170.654C322.188 166.266 316.607 160.208 312.696 152.481C308.785 144.658 306.829 135.643 306.829 125.436C306.829 115.228 308.785 106.213 312.696 98.3905C316.607 90.5678 322.188 84.4624 329.438 80.0741C336.689 75.6857 345.37 73.4916 355.482 73.4916C367.502 73.4916 377.328 76.4966 384.96 82.5067C392.687 88.4214 397.505 96.7687 399.413 107.549H379.236C377.996 102.111 375.325 97.8658 371.223 94.813C367.216 91.6649 361.874 90.0908 355.196 90.0908C345.942 90.0908 338.692 93.239 333.445 99.5352C328.198 105.832 325.575 114.465 325.575 125.436C325.575 136.407 328.198 145.04 333.445 151.336C338.692 157.537 345.942 160.638 355.196 160.638C361.874 160.638 367.216 159.207 371.223 156.345C375.325 153.387 377.996 149.333 379.236 144.182H399.413C397.505 154.484 392.687 162.546 384.96 168.365C377.328 174.184 367.502 177.094 355.482 177.094ZM415.197 175.377V72.3468H433.513V115.276C435.898 111.365 439.094 108.312 443.101 106.118C447.203 103.828 451.878 102.683 457.124 102.683C465.901 102.683 472.674 105.45 477.444 110.983C482.31 116.516 484.742 124.625 484.742 135.309V175.377H466.569V137.027C466.569 130.921 465.329 126.247 462.848 123.003C460.463 119.76 456.647 118.138 451.401 118.138C446.249 118.138 441.956 119.95 438.522 123.576C435.183 127.201 433.513 132.257 433.513 138.744V175.377H415.197ZM526.727 177.094C520.621 177.094 515.613 176.14 511.701 174.232C507.79 172.229 504.88 169.605 502.973 166.362C501.065 163.118 500.111 159.541 500.111 155.629C500.111 149.047 502.686 143.705 507.838 139.602C512.989 135.5 520.717 133.449 531.02 133.449H549.05V131.732C549.05 126.867 547.666 123.289 544.9 121C542.133 118.71 538.699 117.565 534.597 117.565C530.876 117.565 527.633 118.472 524.866 120.284C522.1 122.001 520.383 124.577 519.715 128.012H501.828C502.305 122.86 504.022 118.376 506.979 114.56C510.032 110.745 513.943 107.835 518.713 105.832C523.483 103.733 528.825 102.683 534.74 102.683C544.852 102.683 552.818 105.211 558.637 110.268C564.457 115.324 567.366 122.478 567.366 131.732V175.377H551.769L550.051 163.929C547.953 167.745 544.995 170.893 541.179 173.373C537.459 175.854 532.641 177.094 526.727 177.094ZM530.876 162.784C536.123 162.784 540.178 161.067 543.04 157.633C545.997 154.198 547.857 149.953 548.62 144.897H533.023C528.158 144.897 524.676 145.803 522.577 147.616C520.478 149.333 519.429 151.479 519.429 154.055C519.429 156.822 520.478 158.968 522.577 160.495C524.676 162.021 527.442 162.784 530.876 162.784ZM584.845 175.377V104.401H601.158L602.875 117.709C605.451 113.129 608.933 109.504 613.322 106.833C617.805 104.067 623.052 102.683 629.062 102.683V122.001H623.911C619.904 122.001 616.327 122.622 613.178 123.862C610.03 125.102 607.55 127.248 605.737 130.301C604.02 133.354 603.162 137.599 603.162 143.037V175.377H584.845ZM669.954 154.198C666.52 154.198 663.324 153.817 660.367 153.054L655.072 158.348C656.694 159.207 658.888 159.922 661.655 160.495C664.421 161.067 668.905 161.639 675.106 162.212C684.55 163.07 691.419 165.312 695.712 168.937C700.005 172.562 702.151 177.571 702.151 183.962C702.151 188.16 701.006 192.119 698.717 195.84C696.427 199.655 692.898 202.708 688.128 204.998C683.358 207.383 677.252 208.575 669.811 208.575C659.699 208.575 651.543 206.667 645.342 202.851C639.141 199.131 636.04 193.502 636.04 185.966C636.04 179.574 639.141 174.041 645.342 169.367C643.434 168.508 641.764 167.602 640.333 166.648C638.998 165.694 637.805 164.692 636.756 163.643V160.351L649.205 147.187C643.672 142.321 640.906 136.073 640.906 128.441C640.906 123.671 642.05 119.33 644.34 115.419C646.725 111.508 650.064 108.407 654.357 106.118C658.65 103.828 663.849 102.683 669.954 102.683C673.961 102.683 677.682 103.256 681.116 104.401H708.018V115.562L695.855 116.421C697.763 120.046 698.717 124.053 698.717 128.441C698.717 133.211 697.572 137.551 695.283 141.463C692.993 145.374 689.654 148.474 685.266 150.764C680.973 153.054 675.869 154.198 669.954 154.198ZM669.954 140.175C673.675 140.175 676.728 139.173 679.113 137.17C681.593 135.166 682.833 132.304 682.833 128.584C682.833 124.863 681.593 122.001 679.113 119.998C676.728 117.995 673.675 116.993 669.954 116.993C666.043 116.993 662.895 117.995 660.51 119.998C658.125 122.001 656.933 124.863 656.933 128.584C656.933 132.304 658.125 135.166 660.51 137.17C662.895 139.173 666.043 140.175 669.954 140.175ZM652.783 184.106C652.783 187.635 654.405 190.259 657.648 191.976C660.987 193.788 665.041 194.695 669.811 194.695C674.39 194.695 678.111 193.741 680.973 191.833C683.835 190.02 685.266 187.54 685.266 184.392C685.266 181.816 684.312 179.67 682.404 177.952C680.591 176.235 676.918 175.186 671.385 174.804C667.474 174.518 663.849 174.089 660.51 173.516C657.743 175.043 655.74 176.712 654.5 178.525C653.355 180.337 652.783 182.198 652.783 184.106ZM753.066 177.094C745.911 177.094 739.567 175.567 734.034 172.515C728.501 169.462 724.16 165.169 721.012 159.636C717.864 154.103 716.29 147.711 716.29 140.461C716.29 133.115 717.816 126.581 720.869 120.857C724.017 115.133 728.31 110.697 733.748 107.549C739.281 104.305 745.768 102.683 753.209 102.683C760.173 102.683 766.326 104.21 771.668 107.262C777.011 110.315 781.16 114.513 784.118 119.855C787.171 125.102 788.697 130.969 788.697 137.456C788.697 138.505 788.649 139.602 788.554 140.747C788.554 141.892 788.506 143.084 788.411 144.325H734.463C734.845 149.858 736.753 154.198 740.187 157.346C743.717 160.495 747.962 162.069 752.923 162.069C756.643 162.069 759.744 161.258 762.224 159.636C764.8 157.919 766.708 155.725 767.948 153.054H786.55C785.215 157.537 782.973 161.639 779.825 165.36C776.772 168.985 772.956 171.847 768.377 173.946C763.893 176.044 758.79 177.094 753.066 177.094ZM753.209 117.565C748.725 117.565 744.766 118.853 741.332 121.429C737.898 123.909 735.703 127.725 734.749 132.877H770.094C769.808 128.202 768.091 124.482 764.943 121.715C761.795 118.949 757.883 117.565 753.209 117.565ZM804.531 175.377V75.2088H822.848V161.067H867.208V175.377H804.531ZM892.791 93.3821C889.452 93.3821 886.686 92.3804 884.491 90.377C882.393 88.3737 881.343 85.8456 881.343 82.7929C881.343 79.7402 882.393 77.2598 884.491 75.3518C886.686 73.3485 889.452 72.3468 892.791 72.3468C896.13 72.3468 898.849 73.3485 900.948 75.3518C903.142 77.2598 904.239 79.7402 904.239 82.7929C904.239 85.8456 903.142 88.3737 900.948 90.377C898.849 92.3804 896.13 93.3821 892.791 93.3821ZM883.633 175.377V104.401H901.949V175.377H883.633ZM921.067 175.377V104.401H937.237L938.668 116.421C940.862 112.223 944.01 108.884 948.113 106.404C952.31 103.924 957.223 102.683 962.852 102.683C971.628 102.683 978.449 105.45 983.314 110.983C988.18 116.516 990.612 124.625 990.612 135.309V175.377H972.296V137.027C972.296 130.921 971.056 126.247 968.575 123.003C966.095 119.76 962.231 118.138 956.985 118.138C951.833 118.138 947.588 119.95 944.249 123.576C941.005 127.201 939.384 132.257 939.384 138.744V175.377H921.067ZM1008.13 175.377V72.3468H1026.44V133.163L1051.63 104.401H1073.38L1044.33 136.74L1078.1 175.377H1055.21L1026.44 139.745V175.377H1008.13Z" fill="black"/>
</svg>
