<svg width="74" height="77" viewBox="0 0 74 77" fill="none" xmlns="http://www.w3.org/2000/svg">
<ellipse cx="37" cy="38.5" rx="37" ry="38.5" fill="#FF6B00"/>
<path fill-rule="evenodd" clip-rule="evenodd" d="M49.915 18.201C50.365 18.5865 50.6803 19.1059 50.8149 19.6838C50.9496 20.2616 50.8966 20.8678 50.6637 21.4141L45.1931 34.2498L55.4361 38.6154C55.9045 38.8148 56.3092 39.1393 56.6061 39.5534C56.9029 39.9675 57.0805 40.4555 57.1196 40.9642C57.1586 41.4728 57.0576 41.9828 56.8276 42.4384C56.5975 42.8941 56.2472 43.278 55.8148 43.5485L26.9483 61.5802C26.4454 61.8953 25.8555 62.0416 25.2645 61.9979C24.6734 61.9541 24.1121 61.7225 23.6621 61.3368C23.2122 60.9512 22.8971 60.4315 22.7626 59.8535C22.6282 59.2754 22.6815 58.6692 22.9147 58.1229L28.3854 45.2872L18.1424 40.9216C17.6739 40.7221 17.2692 40.3977 16.9724 39.9836C16.6756 39.5695 16.498 39.0815 16.4589 38.5728C16.4199 38.0641 16.5209 37.5542 16.7509 37.0986C16.981 36.6429 17.3313 36.2589 17.7637 35.9885L46.6301 17.9568C47.1332 17.6427 47.7228 17.4973 48.3133 17.5417C48.9039 17.5861 49.4657 17.8154 49.915 18.201Z" fill="white"/>
</svg>
